<?xml version="1.0" encoding="UTF-8" standalone="no"?>
<!-- Created with Inkscape (http://www.inkscape.org/) -->

<svg
   xmlns:dc="http://purl.org/dc/elements/1.1/"
   xmlns:cc="http://creativecommons.org/ns#"
   xmlns:rdf="http://www.w3.org/1999/02/22-rdf-syntax-ns#"
   xmlns:svg="http://www.w3.org/2000/svg"
   xmlns="http://www.w3.org/2000/svg"
   xmlns:sodipodi="http://sodipodi.sourceforge.net/DTD/sodipodi-0.dtd"
   xmlns:inkscape="http://www.inkscape.org/namespaces/inkscape"
   width="74mm"
   height="18mm"
   viewBox="0 0 74 18"
   version="1.1"
   id="SVGRoot"
   inkscape:version="0.91 r13725"
   sodipodi:docname="logo-cheatsheets.svg">
  <sodipodi:namedview
     id="base"
     pagecolor="#ffffff"
     bordercolor="#666666"
     borderopacity="1.0"
     inkscape:pageopacity="0.0"
     inkscape:pageshadow="2"
     inkscape:zoom="4.7338964"
     inkscape:cx="98.812984"
     inkscape:cy="34.015748"
     inkscape:document-units="mm"
     inkscape:current-layer="layer1"
     showgrid="false"
     inkscape:window-width="1920"
     inkscape:window-height="993"
     inkscape:window-x="0"
     inkscape:window-y="0"
     inkscape:window-maximized="1" />
  <defs
     id="defs10" />
  <metadata
     id="metadata13">
    <rdf:RDF>
      <cc:Work
         rdf:about="">
        <dc:format>image/svg+xml</dc:format>
        <dc:type
           rdf:resource="http://purl.org/dc/dcmitype/StillImage" />
        <dc:title></dc:title>
      </cc:Work>
    </rdf:RDF>
  </metadata>
  <g
     id="layer1"
     inkscape:groupmode="layer"
     inkscape:label="Capa 1"
     transform="translate(0,-34)">
    <g
       style="font-style:normal;font-weight:normal;font-size:10.58333302px;line-height:1.25;font-family:sans-serif;letter-spacing:0px;word-spacing:0px;fill:#ffffff;fill-opacity:1;stroke:none;stroke-width:0.26458332"
       id="text108">
      <path
         d="m 5.2337886,43.427916 q 0,-0.351399 0.093018,-0.764811 0.1033529,-0.413411 0.2790527,-0.826823 0.1756999,-0.423746 0.4237468,-0.816487 0.2480468,-0.403077 0.5581054,-0.7028 0.3100586,-0.310058 0.6717936,-0.485758 0.361735,-0.186035 0.7648112,-0.186035 0.3307292,0 0.6201172,0.09302 0.289388,0.08268 0.4960937,0.258382 0.2067057,0.1757 0.3203939,0.444418 0.1240234,0.258382 0.1240234,0.620117 -0.2273763,0 -0.3720703,-0.113688 Q 9.0785151,40.823424 8.9544917,40.67873 8.8408035,40.534036 8.6961095,40.420348 8.5617508,40.30666 8.3447098,40.30666 q -0.3203939,0 -0.6201172,0.165364 -0.289388,0.165365 -0.5477702,0.444418 -0.2480468,0.279053 -0.4444173,0.630452 -0.1860351,0.3514 -0.3307291,0.713135 -0.1343587,0.3514 -0.217041,0.692464 -0.072347,0.341065 -0.072347,0.589111 0,0.537435 0.1550293,1.012859 0.1653645,0.465087 0.4650878,0.816487 0.2997233,0.341065 0.7441406,0.537435 0.4444173,0.19637 1.0128581,0.19637 0.361735,0 0.6821289,-0.103352 0.3307291,-0.113689 0.6304524,-0.237712 0.3100589,-0.134359 0.6097819,-0.248047 0.299723,-0.113688 0.599447,-0.113688 0.04134,0 0.113688,0.01034 0.08268,0 0.144694,0.02067 0.07235,0.02067 0.124023,0.07235 0.05168,0.04134 0.05168,0.134359 0,0.37207 -0.289388,0.630452 -0.279053,0.258382 -0.671794,0.423747 -0.392741,0.155029 -0.8164876,0.227376 -0.4237467,0.07235 -0.6924642,0.07235 -0.7854817,0 -1.4676106,-0.248047 Q 6.8254227,46.487161 6.3189937,46.022073 5.8125647,45.556985 5.5231767,44.905862 5.2337886,44.244404 5.2337886,43.427916 Z"
         style="font-style:normal;font-variant:normal;font-weight:normal;font-stretch:normal;font-family:'Gloria Hallelujah';-inkscape-font-specification:'Gloria Hallelujah';fill:#ffffff;fill-opacity:1;stroke-width:0.26458332"
         id="path3336" />
      <path
         d="m 12.189436,40.254983 q 0,-0.113688 0.02067,-0.279052 0.03101,-0.1757 0.09302,-0.330729 0.07235,-0.15503 0.1757,-0.258383 0.103353,-0.113688 0.268718,-0.113688 0.01034,0 0.05168,0.01034 0.04134,0.01033 0.05168,0.01033 0.175699,0.640788 0.206705,1.27124 0.03101,0.630453 -0.02067,1.229899 -0.05168,0.589111 -0.15503,1.147217 -0.103352,0.54777 -0.175699,1.012858 -0.06201,0.465088 -0.08268,0.837158 -0.01034,0.37207 0.113688,0.630453 -0.02067,-0.165365 -0.03101,-0.392741 0,-0.237712 0.04134,-0.485759 0.05168,-0.248047 0.155029,-0.496094 0.113688,-0.248046 0.320394,-0.444417 0.206706,-0.19637 0.527099,-0.310058 0.33073,-0.113689 0.816488,-0.113689 0.506429,0 0.868164,0.1757 0.37207,0.1757 0.609782,0.485759 0.237712,0.299723 0.3514,0.713135 0.124023,0.403076 0.124023,0.868164 0,0.217041 -0.01034,0.496093 0,0.268718 -0.07235,0.506429 -0.06201,0.227377 -0.237712,0.392741 -0.165364,0.155029 -0.496093,0.155029 0,-0.165364 0.02067,-0.444417 0.02067,-0.289388 0.02067,-0.609782 0.01033,-0.320394 -0.02067,-0.651123 -0.02067,-0.330729 -0.134359,-0.589111 -0.113688,-0.268718 -0.320393,-0.434082 -0.196371,-0.1757 -0.547771,-0.1757 -0.124023,0 -0.310058,0.02067 -0.1757,0.01034 -0.361735,0.09302 -0.186035,0.08268 -0.361735,0.258382 -0.1757,0.165365 -0.279053,0.465088 -0.103353,0.289388 -0.124023,0.744141 -0.01034,0.444417 0.113688,1.09554 -0.07235,0.186035 -0.186035,0.217041 -0.103353,0.03101 -0.268718,0.03101 -0.330729,0 -0.54777,-0.227376 -0.206706,-0.237712 -0.320394,-0.630453 -0.113688,-0.392741 -0.155029,-0.909505 -0.03101,-0.516764 -0.02067,-1.07487 0.01034,-0.56844 0.05168,-1.147216 0.05168,-0.589112 0.09302,-1.105876 0.05168,-0.5271 0.09302,-0.950846 0.05168,-0.434082 0.05168,-0.692465 z"
         style="font-style:normal;font-variant:normal;font-weight:normal;font-stretch:normal;font-family:'Gloria Hallelujah';-inkscape-font-specification:'Gloria Hallelujah';fill:#ffffff;fill-opacity:1;stroke-width:0.26458332"
         id="path3338" />
      <path
         d="m 16.933333,44.09971 q 0,-0.558106 0.134358,-1.116211 0.134359,-0.558105 0.423747,-1.002523 0.299723,-0.444417 0.764811,-0.72347 0.475423,-0.279053 1.147217,-0.279053 0.382406,0 0.671794,0.144695 0.289388,0.134358 0.485758,0.361735 0.19637,0.227376 0.289388,0.537434 0.103353,0.299724 0.103353,0.630453 0,0.527099 -0.248047,1.023193 -0.237712,0.496094 -0.651123,0.8785 -0.403076,0.37207 -0.930176,0.56844 -0.527099,0.186035 -1.07487,0.08268 0.01034,0.299723 0.196371,0.485758 0.19637,0.1757 0.465088,0.268717 0.268717,0.09302 0.558105,0.124024 0.289388,0.02067 0.516765,0.02067 0.237711,0 0.444417,-0.04134 0.206706,-0.04134 0.413411,-0.09302 0.206706,-0.05168 0.413412,-0.09302 0.217041,-0.04134 0.454752,-0.04134 0.09302,0 0.186036,0.01033 0.09302,0.01034 0.175699,0.05168 0.08268,0.03101 0.134359,0.113688 0.05168,0.07235 0.05168,0.186035 0,0.19637 -0.144694,0.330729 -0.144694,0.124024 -0.372071,0.217041 -0.217041,0.09302 -0.485758,0.144694 -0.268718,0.04134 -0.5271,0.07235 -0.248047,0.02067 -0.465088,0.02067 -0.206705,0.01033 -0.310058,0.01033 -0.661459,0 -1.188558,-0.206706 -0.5271,-0.217041 -0.888835,-0.589111 -0.361735,-0.382406 -0.558105,-0.909505 -0.186035,-0.537435 -0.186035,-1.188558 z m 1.09554,-0.671794 q 0,0.361735 0.09302,0.5271 0.103352,0.165364 0.485758,0.165364 0.268717,0 0.5271,-0.09302 0.258382,-0.103353 0.465087,-0.279053 0.217041,-0.1757 0.341065,-0.413411 0.124023,-0.237712 0.124023,-0.516765 0,-0.155029 -0.03101,-0.320393 -0.02067,-0.165365 -0.103352,-0.299724 -0.08268,-0.144694 -0.217041,-0.227376 -0.124024,-0.09302 -0.33073,-0.09302 -0.310058,0 -0.56844,0.144694 -0.248047,0.134359 -0.423747,0.361735 -0.1757,0.217041 -0.268717,0.496094 -0.09302,0.268718 -0.09302,0.54777 z"
         style="font-style:normal;font-variant:normal;font-weight:normal;font-stretch:normal;font-family:'Gloria Hallelujah';-inkscape-font-specification:'Gloria Hallelujah';fill:#ffffff;fill-opacity:1;stroke-width:0.26458332"
         id="path3340" />
      <path
         d="m 27.144595,45.639668 q -0.392741,0.268717 -0.682129,0.485758 -0.279053,0.206706 -0.547771,0.3514 -0.268717,0.144694 -0.578776,0.217041 -0.299723,0.07235 -0.74414,0.07235 -0.961182,0 -1.42627,-0.506429 -0.465088,-0.516765 -0.465088,-1.529623 0,-0.392741 0.103353,-0.816487 0.103353,-0.423747 0.299724,-0.837158 0.206705,-0.423747 0.485758,-0.795817 0.279053,-0.382406 0.630453,-0.671794 0.351399,-0.289388 0.74414,-0.454753 0.403076,-0.1757 0.847494,-0.1757 0.74414,0.07235 1.167887,0.372071 0.423747,0.289388 0.640788,0.754476 0.217041,0.454752 0.299723,1.023193 0.08268,0.558105 0.124023,1.157552 0.05168,0.599447 0.124024,1.198893 0.07235,0.599447 0.299723,1.105876 -0.134359,0.341064 -0.258382,0.475423 -0.113688,0.144694 -0.258382,0.05168 -0.144694,-0.09302 -0.341065,-0.454752 -0.186035,-0.361735 -0.465087,-1.023193 z m -3.565674,-0.888835 q 0,0.589111 0.217041,0.868164 0.227376,0.268717 0.795817,0.268717 0.423747,0 0.806152,-0.144694 0.392741,-0.155029 0.682129,-0.413411 0.289388,-0.268717 0.465088,-0.640788 0.1757,-0.37207 0.1757,-0.826823 0,-0.186035 0.01034,-0.516764 0.01033,-0.341064 -0.04134,-0.671794 -0.05168,-0.330729 -0.19637,-0.56844 -0.144695,-0.248047 -0.434083,-0.248047 -0.537434,0 -0.992187,0.279053 -0.454753,0.268717 -0.785482,0.692464 -0.330729,0.423746 -0.516764,0.940511 -0.186035,0.506429 -0.186035,0.981852 z"
         style="font-style:normal;font-variant:normal;font-weight:normal;font-stretch:normal;font-family:'Gloria Hallelujah';-inkscape-font-specification:'Gloria Hallelujah';fill:#ffffff;fill-opacity:1;stroke-width:0.26458332"
         id="path3342" />
      <path
         d="m 28.901594,41.763935 q 0,-0.03101 0.01034,-0.05168 0,-0.02067 0.01034,-0.05168 0.04134,-0.05168 0.124023,-0.134358 0.08268,-0.08268 0.103353,-0.08268 l 2.077392,0 q 0,-0.113688 -0.03101,-0.361735 -0.03101,-0.248047 -0.06201,-0.54777 -0.02067,-0.299723 -0.01033,-0.620117 0.01033,-0.330729 0.08268,-0.589111 0.08268,-0.268718 0.248047,-0.434082 0.1757,-0.1757 0.485758,-0.1757 0,1.043864 0.144694,1.674316 0.144694,0.630453 0.382406,0.971517 0.248047,0.341065 0.558105,0.444417 0.310059,0.103353 0.630453,0.09302 0.330729,-0.02067 0.640787,-0.103353 0.310059,-0.08268 0.547771,-0.113688 0.248046,-0.03101 0.39274,0.05168 0.144694,0.07235 0.144694,0.361735 0,0.217041 -0.103352,0.310059 -0.09302,0.09302 -0.372071,0.144694 -0.08268,0.01034 -0.279052,0.04134 -0.186036,0.02067 -0.423747,0.04134 -0.237712,0.02067 -0.506429,0.05168 -0.268718,0.02067 -0.506429,0.04134 -0.237712,0.02067 -0.434082,0.03101 -0.196371,0 -0.289388,0 0,0.05168 -0.01034,0.1757 -0.01034,0.124023 -0.01034,0.165364 0,0.454753 0.144694,0.888835 0.144694,0.423746 0.310059,0.847493 0.1757,0.423747 0.320394,0.847494 0.144694,0.423746 0.144694,0.878499 0,0.08268 -0.02067,0.1757 -0.01034,0.08268 -0.06201,0.155029 -0.04134,0.06201 -0.134358,0.09302 -0.08268,0.04134 -0.237712,-0.01034 -0.392741,-0.103352 -0.589111,-0.444417 -0.186035,-0.341064 -0.279053,-0.806152 -0.09302,-0.475423 -0.124023,-1.002523 -0.03101,-0.5271 -0.103353,-0.981852 -0.06201,-0.465088 -0.206706,-0.785482 -0.144694,-0.330729 -0.465088,-0.403076 l -1.99471,-0.454753 q -0.04134,0 -0.124024,-0.08268 -0.08268,-0.09302 -0.103352,-0.134359 -0.01034,-0.02067 -0.01034,-0.05168 -0.01034,-0.02067 -0.01034,-0.06201 z"
         style="font-style:normal;font-variant:normal;font-weight:normal;font-stretch:normal;font-family:'Gloria Hallelujah';-inkscape-font-specification:'Gloria Hallelujah';fill:#ffffff;fill-opacity:1;stroke-width:0.26458332"
         id="path3344" />
      <path
         d="m 37.769269,46.507832 q 0.165365,-0.113689 0.392741,-0.289388 0.237712,-0.186036 0.475423,-0.392741 0.237712,-0.206706 0.444417,-0.434082 0.206706,-0.227377 0.320394,-0.434082 0.124024,-0.217041 0.124024,-0.403076 0,-0.186036 -0.186035,-0.310059 -0.33073,0 -0.72347,0.03101 -0.392741,0.02067 -0.785482,0.02067 -0.392741,-0.01034 -0.764811,-0.07235 -0.361735,-0.06201 -0.651123,-0.227376 -0.289388,-0.165365 -0.465088,-0.465088 -0.165365,-0.310058 -0.165365,-0.785482 0,-0.558105 0.206706,-1.002522 0.217041,-0.454753 0.568441,-0.795817 0.351399,-0.3514 0.785481,-0.609782 0.444418,-0.268718 0.888835,-0.454753 0.268717,0.07235 0.496094,0.258382 0.227376,0.186035 0.392741,0.413412 -0.07235,0.227376 -0.289388,0.351399 -0.206706,0.124024 -0.485759,0.217042 -0.268717,0.09302 -0.568441,0.19637 -0.299723,0.103353 -0.54777,0.279053 -0.237711,0.165364 -0.403076,0.444417 -0.165365,0.268717 -0.165365,0.713135 0,0.330729 0.165365,0.485758 0.165365,0.155029 0.434082,0.217041 0.268718,0.05168 0.609782,0.04134 0.341064,-0.02067 0.692464,-0.05168 0.361735,-0.03101 0.7028,-0.03101 0.341064,-0.01033 0.609781,0.08268 0.268718,0.08268 0.423747,0.279053 0.165365,0.19637 0.165365,0.578776 0,0.165365 -0.113688,0.423747 -0.103353,0.258382 -0.289388,0.558105 -0.1757,0.289388 -0.423747,0.578776 -0.237712,0.289388 -0.506429,0.5271 -0.258382,0.227376 -0.5271,0.382405 -0.258382,0.144694 -0.485758,0.144694 -0.217041,0 -0.289388,-0.155029 -0.06201,-0.155029 -0.06201,-0.310058 z"
         style="font-style:normal;font-variant:normal;font-weight:normal;font-stretch:normal;font-family:'Gloria Hallelujah';-inkscape-font-specification:'Gloria Hallelujah';fill:#ffffff;fill-opacity:1;stroke-width:0.26458332"
         id="path3346" />
      <path
         d="m 41.19025,40.254983 q 0,-0.113688 0.02067,-0.279052 0.03101,-0.1757 0.09302,-0.330729 0.07235,-0.15503 0.1757,-0.258383 0.103353,-0.113688 0.268718,-0.113688 0.01033,0 0.05168,0.01034 0.04134,0.01033 0.05168,0.01033 0.175699,0.640788 0.206705,1.27124 0.03101,0.630453 -0.02067,1.229899 -0.05168,0.589111 -0.15503,1.147217 -0.103352,0.54777 -0.175699,1.012858 -0.06201,0.465088 -0.08268,0.837158 -0.01034,0.37207 0.113688,0.630453 -0.02067,-0.165365 -0.03101,-0.392741 0,-0.237712 0.04134,-0.485759 0.05168,-0.248047 0.155029,-0.496094 0.113688,-0.248046 0.320394,-0.444417 0.206706,-0.19637 0.527099,-0.310058 0.33073,-0.113689 0.816488,-0.113689 0.506429,0 0.868164,0.1757 0.37207,0.1757 0.609782,0.485759 0.237712,0.299723 0.3514,0.713135 0.124023,0.403076 0.124023,0.868164 0,0.217041 -0.01034,0.496093 0,0.268718 -0.07235,0.506429 -0.06201,0.227377 -0.237712,0.392741 -0.165364,0.155029 -0.496093,0.155029 0,-0.165364 0.02067,-0.444417 0.02067,-0.289388 0.02067,-0.609782 0.01033,-0.320394 -0.02067,-0.651123 -0.02067,-0.330729 -0.134359,-0.589111 -0.113688,-0.268718 -0.320394,-0.434082 -0.19637,-0.1757 -0.54777,-0.1757 -0.124023,0 -0.310058,0.02067 -0.1757,0.01034 -0.361735,0.09302 -0.186035,0.08268 -0.361735,0.258382 -0.1757,0.165365 -0.279053,0.465088 -0.103353,0.289388 -0.124023,0.744141 -0.01034,0.444417 0.113688,1.09554 -0.07235,0.186035 -0.186035,0.217041 -0.103353,0.03101 -0.268718,0.03101 -0.330729,0 -0.54777,-0.227376 -0.206706,-0.237712 -0.320394,-0.630453 -0.113688,-0.392741 -0.155029,-0.909505 -0.03101,-0.516764 -0.02067,-1.07487 0.01034,-0.56844 0.05168,-1.147216 0.05168,-0.589112 0.09302,-1.105876 0.05168,-0.5271 0.09302,-0.950846 0.05168,-0.434082 0.05168,-0.692465 z"
         style="font-style:normal;font-variant:normal;font-weight:normal;font-stretch:normal;font-family:'Gloria Hallelujah';-inkscape-font-specification:'Gloria Hallelujah';fill:#ffffff;fill-opacity:1;stroke-width:0.26458332"
         id="path3348" />
      <path
         d="m 45.934144,44.09971 q 0,-0.558106 0.134359,-1.116211 0.134359,-0.558105 0.423747,-1.002523 0.299723,-0.444417 0.764811,-0.72347 0.475423,-0.279053 1.147217,-0.279053 0.382405,0 0.671793,0.144695 0.289388,0.134358 0.485759,0.361735 0.19637,0.227376 0.289388,0.537434 0.103352,0.299724 0.103352,0.630453 0,0.527099 -0.248046,1.023193 -0.237712,0.496094 -0.651123,0.8785 -0.403077,0.37207 -0.930176,0.56844 -0.5271,0.186035 -1.07487,0.08268 0.01033,0.299723 0.196371,0.485758 0.19637,0.1757 0.465087,0.268717 0.268718,0.09302 0.558106,0.124024 0.289388,0.02067 0.516764,0.02067 0.237712,0 0.444417,-0.04134 0.206706,-0.04134 0.413412,-0.09302 0.206706,-0.05168 0.413411,-0.09302 0.217041,-0.04134 0.454753,-0.04134 0.09302,0 0.186035,0.01033 0.09302,0.01034 0.1757,0.05168 0.08268,0.03101 0.134359,0.113688 0.05168,0.07235 0.05168,0.186035 0,0.19637 -0.144694,0.330729 -0.144694,0.124024 -0.37207,0.217041 -0.217041,0.09302 -0.485759,0.144694 -0.268717,0.04134 -0.527099,0.07235 -0.248047,0.02067 -0.465088,0.02067 -0.206706,0.01033 -0.310059,0.01033 -0.661458,0 -1.188558,-0.206706 Q 47.04002,46.569843 46.678285,46.197773 46.31655,45.815367 46.120179,45.288268 45.934144,44.750833 45.934144,44.09971 Z m 1.095541,-0.671794 q 0,0.361735 0.09302,0.5271 0.103353,0.165364 0.485759,0.165364 0.268717,0 0.527099,-0.09302 0.258382,-0.103353 0.465088,-0.279053 0.217041,-0.1757 0.341064,-0.413411 0.124024,-0.237712 0.124024,-0.516765 0,-0.155029 -0.03101,-0.320393 -0.02067,-0.165365 -0.103353,-0.299724 -0.08268,-0.144694 -0.217041,-0.227376 -0.124023,-0.09302 -0.330729,-0.09302 -0.310059,0 -0.568441,0.144694 -0.248047,0.134359 -0.423746,0.361735 -0.1757,0.217041 -0.268718,0.496094 -0.09302,0.268718 -0.09302,0.54777 z"
         style="font-style:normal;font-variant:normal;font-weight:normal;font-stretch:normal;font-family:'Gloria Hallelujah';-inkscape-font-specification:'Gloria Hallelujah';fill:#ffffff;fill-opacity:1;stroke-width:0.26458332"
         id="path3350" />
      <path
         d="m 51.701234,44.09971 q 0,-0.558106 0.134359,-1.116211 0.134358,-0.558105 0.423746,-1.002523 0.299724,-0.444417 0.764812,-0.72347 0.475423,-0.279053 1.147216,-0.279053 0.382406,0 0.671794,0.144695 0.289388,0.134358 0.485758,0.361735 0.196371,0.227376 0.289388,0.537434 0.103353,0.299724 0.103353,0.630453 0,0.527099 -0.248047,1.023193 -0.237711,0.496094 -0.651123,0.8785 -0.403076,0.37207 -0.930175,0.56844 -0.5271,0.186035 -1.07487,0.08268 0.01033,0.299723 0.19637,0.485758 0.196371,0.1757 0.465088,0.268717 0.268718,0.09302 0.558106,0.124024 0.289388,0.02067 0.516764,0.02067 0.237712,0 0.444417,-0.04134 0.206706,-0.04134 0.413412,-0.09302 0.206705,-0.05168 0.413411,-0.09302 0.217041,-0.04134 0.454753,-0.04134 0.09302,0 0.186035,0.01033 0.09302,0.01034 0.1757,0.05168 0.08268,0.03101 0.134359,0.113688 0.05168,0.07235 0.05168,0.186035 0,0.19637 -0.144694,0.330729 -0.144694,0.124024 -0.37207,0.217041 -0.217041,0.09302 -0.485759,0.144694 -0.268717,0.04134 -0.527099,0.07235 -0.248047,0.02067 -0.465088,0.02067 -0.206706,0.01033 -0.310059,0.01033 -0.661458,0 -1.188558,-0.206706 Q 52.80711,46.569843 52.445375,46.197773 52.08364,45.815367 51.887269,45.288268 51.701234,44.750833 51.701234,44.09971 Z m 1.09554,-0.671794 q 0,0.361735 0.09302,0.5271 0.103353,0.165364 0.485758,0.165364 0.268718,0 0.5271,-0.09302 0.258382,-0.103353 0.465088,-0.279053 0.217041,-0.1757 0.341064,-0.413411 0.124024,-0.237712 0.124024,-0.516765 0,-0.155029 -0.03101,-0.320393 -0.02067,-0.165365 -0.103353,-0.299724 -0.08268,-0.144694 -0.217041,-0.227376 -0.124023,-0.09302 -0.330729,-0.09302 -0.310059,0 -0.568441,0.144694 -0.248047,0.134359 -0.423747,0.361735 -0.1757,0.217041 -0.268717,0.496094 -0.09302,0.268718 -0.09302,0.54777 z"
         style="font-style:normal;font-variant:normal;font-weight:normal;font-stretch:normal;font-family:'Gloria Hallelujah';-inkscape-font-specification:'Gloria Hallelujah';fill:#ffffff;fill-opacity:1;stroke-width:0.26458332"
         id="path3352" />
      <path
         d="m 57.240948,41.763935 q 0,-0.03101 0.01033,-0.05168 0,-0.02067 0.01033,-0.05168 0.04134,-0.05168 0.124024,-0.134358 0.08268,-0.08268 0.103352,-0.08268 l 2.077393,0 q 0,-0.113688 -0.03101,-0.361735 -0.03101,-0.248047 -0.06201,-0.54777 -0.02067,-0.299723 -0.01033,-0.620117 0.01033,-0.330729 0.08268,-0.589111 0.08268,-0.268718 0.248047,-0.434082 0.1757,-0.1757 0.485759,-0.1757 0,1.043864 0.144694,1.674316 0.144694,0.630453 0.382405,0.971517 0.248047,0.341065 0.558106,0.444417 0.310058,0.103353 0.630452,0.09302 0.330729,-0.02067 0.640788,-0.103353 0.310059,-0.08268 0.54777,-0.113688 0.248047,-0.03101 0.392741,0.05168 0.144694,0.07235 0.144694,0.361735 0,0.217041 -0.103353,0.310059 -0.09302,0.09302 -0.37207,0.144694 -0.08268,0.01034 -0.279053,0.04134 -0.186035,0.02067 -0.423747,0.04134 -0.237711,0.02067 -0.506429,0.05168 -0.268717,0.02067 -0.506429,0.04134 -0.237711,0.02067 -0.434082,0.03101 -0.19637,0 -0.289388,0 0,0.05168 -0.01033,0.1757 -0.01034,0.124023 -0.01034,0.165364 0,0.454753 0.144694,0.888835 0.144694,0.423746 0.310058,0.847493 0.1757,0.423747 0.320394,0.847494 0.144694,0.423746 0.144694,0.878499 0,0.08268 -0.02067,0.1757 -0.01034,0.08268 -0.06201,0.155029 -0.04134,0.06201 -0.134359,0.09302 -0.08268,0.04134 -0.237711,-0.01034 -0.392741,-0.103352 -0.589112,-0.444417 -0.186035,-0.341064 -0.279052,-0.806152 -0.09302,-0.475423 -0.124024,-1.002523 -0.03101,-0.5271 -0.103353,-0.981852 -0.06201,-0.465088 -0.206705,-0.785482 -0.144694,-0.330729 -0.465088,-0.403076 l -1.994711,-0.454753 q -0.04134,0 -0.124023,-0.08268 -0.08268,-0.09302 -0.103353,-0.134359 -0.01033,-0.02067 -0.01033,-0.05168 -0.01033,-0.02067 -0.01033,-0.06201 z"
         style="font-style:normal;font-variant:normal;font-weight:normal;font-stretch:normal;font-family:'Gloria Hallelujah';-inkscape-font-specification:'Gloria Hallelujah';fill:#ffffff;fill-opacity:1;stroke-width:0.26458332"
         id="path3354" />
      <path
         d="m 66.108625,46.507832 q 0.165364,-0.113689 0.39274,-0.289388 0.237712,-0.186036 0.475424,-0.392741 0.237711,-0.206706 0.444417,-0.434082 0.206706,-0.227377 0.320394,-0.434082 0.124023,-0.217041 0.124023,-0.403076 0,-0.186036 -0.186035,-0.310059 -0.330729,0 -0.72347,0.03101 -0.392741,0.02067 -0.785482,0.02067 -0.392741,-0.01034 -0.764811,-0.07235 -0.361735,-0.06201 -0.651123,-0.227376 -0.289388,-0.165365 -0.465088,-0.465088 -0.165364,-0.310058 -0.165364,-0.785482 0,-0.558105 0.206705,-1.002522 0.217041,-0.454753 0.568441,-0.795817 0.3514,-0.3514 0.785482,-0.609782 0.444417,-0.268718 0.888834,-0.454753 0.268718,0.07235 0.496094,0.258382 0.227376,0.186035 0.392741,0.413412 -0.07235,0.227376 -0.289388,0.351399 -0.206706,0.124024 -0.485758,0.217042 -0.268718,0.09302 -0.568441,0.19637 -0.299723,0.103353 -0.54777,0.279053 -0.237712,0.165364 -0.403076,0.444417 -0.165365,0.268717 -0.165365,0.713135 0,0.330729 0.165365,0.485758 0.165364,0.155029 0.434082,0.217041 0.268717,0.05168 0.609781,0.04134 0.341065,-0.02067 0.692465,-0.05168 0.361735,-0.03101 0.702799,-0.03101 0.341064,-0.01033 0.609782,0.08268 0.268717,0.08268 0.423747,0.279053 0.165364,0.19637 0.165364,0.578776 0,0.165365 -0.113688,0.423747 -0.103353,0.258382 -0.289388,0.558105 -0.1757,0.289388 -0.423747,0.578776 -0.237711,0.289388 -0.506429,0.5271 -0.258382,0.227376 -0.527099,0.382405 -0.258382,0.144694 -0.485759,0.144694 -0.217041,0 -0.289388,-0.155029 -0.06201,-0.155029 -0.06201,-0.310058 z"
         style="font-style:normal;font-variant:normal;font-weight:normal;font-stretch:normal;font-family:'Gloria Hallelujah';-inkscape-font-specification:'Gloria Hallelujah';fill:#ffffff;fill-opacity:1;stroke-width:0.26458332"
         id="path3356" />
    </g>
  </g>
</svg>
